<?xml version="1.0" standalone="no"?>
<!DOCTYPE svg PUBLIC "-//W3C//DTD SVG 20010904//EN"
 "http://www.w3.org/TR/2001/REC-SVG-20010904/DTD/svg10.dtd">
<svg version="1.0" xmlns="http://www.w3.org/2000/svg"
 width="527.000000pt" height="474.000000pt" viewBox="0 0 527.000000 474.000000"
 preserveAspectRatio="xMidYMid meet">

<g transform="translate(0.000000,474.000000) scale(0.100000,-0.100000)"
fill="#ffbc59" stroke="none">
<path d="M2518 4423 c34 -2 88 -2 120 0 31 2 3 3 -63 3 -66 0 -92 -1 -57 -3z"/>
<path d="M2368 4413 c18 -2 45 -2 60 0 15 2 0 4 -33 4 -33 0 -45 -2 -27 -4z"/>
<path d="M2738 4413 c12 -2 32 -2 45 0 12 2 2 4 -23 4 -25 0 -35 -2 -22 -4z"/>
<path d="M2273 4403 c9 -2 25 -2 35 0 9 3 1 5 -18 5 -19 0 -27 -2 -17 -5z"/>
<path d="M2858 4403 c6 -2 18 -2 25 0 6 3 1 5 -13 5 -14 0 -19 -2 -12 -5z"/>
<path d="M2115 4380 c-195 -46 -422 -137 -600 -241 -240 -141 -483 -371 -651
-619 -163 -241 -278 -538 -329 -850 -20 -126 -20 -450 0 -584 36 -238 124
-504 231 -697 186 -336 465 -620 793 -806 51 -29 95 -53 97 -53 1 0 38 -16 81
-36 87 -40 240 -93 365 -124 195 -50 545 -67 779 -36 483 62 932 300 1268 671
70 78 221 277 221 293 0 4 11 23 24 42 81 121 172 343 226 553 54 213 62 560
16 710 -12 37 -13 21 -8 -135 3 -98 2 -178 -1 -178 -3 0 -13 7 -21 16 -15 14
-16 6 -17 -88 -1 -57 -5 -128 -9 -158 -7 -42 -8 -31 -4 50 4 123 -8 110 -33
-35 -8 -49 -19 -99 -24 -110 -7 -18 -8 -18 -9 5 -1 16 -9 2 -22 -40 -82 -264
-170 -455 -263 -577 -22 -28 -65 -84 -95 -124 -177 -232 -353 -379 -655 -547
-272 -150 -548 -227 -855 -239 -178 -6 -305 8 -498 58 -732 187 -1302 783
-1432 1496 -91 496 7 1017 270 1438 70 112 113 169 202 267 162 181 376 343
592 448 83 41 112 59 62 40 -164 -62 -426 -234 -585 -385 -41 -38 -67 -59 -58
-45 17 26 139 139 217 202 85 68 185 132 305 195 66 35 109 61 95 57 -43 -11
-227 -111 -323 -176 -164 -109 -366 -299 -483 -453 -150 -198 -296 -498 -353
-725 -75 -306 -85 -584 -31 -901 12 -67 19 -123 17 -125 -2 -2 -14 40 -26 93
-105 471 -47 945 166 1368 217 430 573 767 1013 958 95 41 317 111 430 135 25
6 34 10 20 10 -14 0 -61 -8 -105 -18z m-1476 -2610 c0 -9 -4 -8 -9 5 -5 11 -9
27 -9 35 0 9 4 8 9 -5 5 -11 9 -27 9 -35z"/>
<path d="M2938 4393 c7 -3 16 -2 19 1 4 3 -2 6 -13 5 -11 0 -14 -3 -6 -6z"/>
<path d="M2988 4383 c7 -3 16 -2 19 1 4 3 -2 6 -13 5 -11 0 -14 -3 -6 -6z"/>
<path d="M2438 4373 c6 -2 18 -2 25 0 6 3 1 5 -13 5 -14 0 -19 -2 -12 -5z"/>
<path d="M3028 4373 c7 -3 16 -2 19 1 4 3 -2 6 -13 5 -11 0 -14 -3 -6 -6z"/>
<path d="M2348 4363 c7 -3 16 -2 19 1 4 3 -2 6 -13 5 -11 0 -14 -3 -6 -6z"/>
<path d="M3068 4363 c7 -3 16 -2 19 1 4 3 -2 6 -13 5 -11 0 -14 -3 -6 -6z"/>
<path d="M2278 4353 c7 -3 16 -2 19 1 4 3 -2 6 -13 5 -11 0 -14 -3 -6 -6z"/>
<path d="M3108 4353 c7 -3 16 -2 19 1 4 3 -2 6 -13 5 -11 0 -14 -3 -6 -6z"/>
<path d="M2178 4333 c7 -3 16 -2 19 1 4 3 -2 6 -13 5 -11 0 -14 -3 -6 -6z"/>
<path d="M2128 4323 c7 -3 16 -2 19 1 4 3 -2 6 -13 5 -11 0 -14 -3 -6 -6z"/>
<path d="M1995 4294 c-105 -38 -176 -66 -173 -69 2 -2 57 16 123 40 66 24 113
44 105 44 -8 0 -33 -7 -55 -15z"/>
<path d="M3760 4056 c0 -2 8 -10 18 -17 15 -13 16 -12 3 4 -13 16 -21 21 -21
13z"/>
<path d="M3830 4006 c0 -2 8 -10 18 -17 15 -13 16 -12 3 4 -13 16 -21 21 -21
13z"/>
<path d="M3885 3960 c10 -11 20 -20 23 -20 3 0 -3 9 -13 20 -10 11 -20 20 -23
20 -3 0 3 -9 13 -20z"/>
<path d="M3945 3910 c10 -11 20 -20 23 -20 3 0 -3 9 -13 20 -10 11 -20 20 -23
20 -3 0 3 -9 13 -20z"/>
<path d="M4060 3805 c13 -14 26 -25 28 -25 3 0 -5 11 -18 25 -13 14 -26 25
-28 25 -3 0 5 -11 18 -25z"/>
<path d="M3359 3499 c-169 -19 -301 -79 -434 -197 -38 -34 -65 -50 -75 -46
-89 35 -327 48 -460 25 -324 -57 -654 -309 -755 -576 -100 -266 -53 -484 118
-550 156 -59 381 64 474 261 83 174 42 311 -98 330 -128 18 -243 -87 -209
-190 27 -82 170 -69 170 15 0 34 -39 79 -67 79 -14 0 -13 5 9 27 23 23 38 28
92 31 62 4 67 3 95 -25 40 -41 48 -89 26 -170 -27 -97 -69 -175 -125 -227 -58
-54 -154 -103 -222 -112 -85 -12 -195 44 -235 119 -23 44 -22 156 1 227 49
145 175 348 284 456 66 66 197 159 263 188 148 64 247 86 382 86 89 0 198 -14
224 -29 9 -4 -6 -31 -47 -86 -133 -180 -219 -366 -370 -800 -125 -362 -207
-524 -317 -626 -84 -80 -93 -80 -208 -18 -66 35 -187 85 -300 124 -27 9 -89
19 -136 22 -102 7 -160 -13 -203 -70 -60 -78 -40 -167 47 -217 72 -41 156 -54
306 -47 123 6 153 12 314 57 78 21 78 21 205 4 154 -22 481 -25 622 -6 377 52
622 225 725 514 130 363 -12 787 -347 1039 -43 32 -81 59 -83 59 -13 0 -85 51
-85 60 0 21 148 125 243 170 127 60 171 70 295 70 119 0 178 -16 258 -70 l59
-41 -45 40 c-54 49 -149 89 -227 97 -32 3 -67 7 -78 8 -11 2 -50 0 -86 -5z
m-340 -373 c136 -100 242 -271 304 -486 17 -62 21 -102 21 -225 0 -174 -11
-229 -79 -372 -96 -203 -232 -327 -430 -394 -174 -58 -275 -74 -450 -73 -139
1 -271 14 -298 31 -4 3 18 17 51 33 125 59 358 265 469 416 144 196 215 429
183 604 -33 178 -23 264 47 410 25 52 50 100 55 107 13 16 62 -4 127 -51z
m-1369 -1430 c195 -55 271 -79 275 -87 15 -23 -354 -84 -460 -76 -97 7 -179
44 -202 91 -55 117 116 149 387 72z"/>
<path d="M3831 3312 c51 -72 60 -90 84 -165 16 -49 27 -112 30 -168 5 -94 9
-109 27 -109 17 0 3 167 -20 230 -32 90 -70 162 -109 205 -29 33 -31 34 -12 7z"/>
<path d="M4512 2020 c0 -14 2 -19 5 -12 2 6 2 18 0 25 -3 6 -5 1 -5 -13z"/>
</g>
</svg>
