<svg width="19" height="16" viewBox="0 0 19 16" fill="none" xmlns="http://www.w3.org/2000/svg">
<path d="M16.457 4.58545C16.457 4.75732 16.457 4.91488 16.457 5.05811C16.457 6.34717 16.2135 7.62191 15.7266 8.88232C15.2682 10.1141 14.5951 11.2456 13.707 12.2769C12.8477 13.3081 11.7161 14.1532 10.3125 14.812C8.9375 15.4422 7.41927 15.7573 5.75781 15.7573C3.66667 15.7573 1.7474 15.1987 0 14.0815C0.286458 14.1102 0.58724 14.1245 0.902344 14.1245C2.64974 14.1245 4.21094 13.5946 5.58594 12.5347C4.75521 12.506 4.01042 12.2482 3.35156 11.7612C2.72135 11.2743 2.29167 10.6584 2.0625 9.91357C2.29167 9.97087 2.52083 9.99951 2.75 9.99951C3.09375 9.99951 3.42318 9.94222 3.73828 9.82764C2.87891 9.65576 2.16276 9.22607 1.58984 8.53857C1.01693 7.85107 0.730469 7.06331 0.730469 6.17529C0.730469 6.14665 0.730469 6.13232 0.730469 6.13232C1.27474 6.41878 1.84766 6.57633 2.44922 6.60498C1.33203 5.83154 0.773438 4.78597 0.773438 3.46826C0.773438 2.78076 0.945312 2.15055 1.28906 1.57764C2.23438 2.72347 3.36589 3.64014 4.68359 4.32764C6.02995 5.01514 7.47656 5.40186 9.02344 5.48779C8.96615 5.20133 8.9375 4.91488 8.9375 4.62842C8.9375 3.59717 9.29557 2.72347 10.0117 2.00732C10.7565 1.26253 11.6445 0.890137 12.6758 0.890137C13.7643 0.890137 14.681 1.27686 15.4258 2.05029C16.2852 1.87842 17.0872 1.57764 17.832 1.14795C17.5456 2.03597 16.987 2.72347 16.1562 3.21045C16.9297 3.12451 17.6602 2.93831 18.3477 2.65186C17.832 3.39665 17.2018 4.04118 16.457 4.58545Z" fill="white"/>
</svg>
