<svg width="19" height="19" viewBox="0 0 19 19" fill="none" xmlns="http://www.w3.org/2000/svg">
<path d="M14.7031 10.9565C14.7031 10.3263 14.5885 9.868 14.3594 9.58154C14.1302 9.26644 13.7005 9.10889 13.0703 9.10889C12.2969 9.10889 11.7526 9.33805 11.4375 9.79639C11.1224 10.2547 10.9648 10.8993 10.9648 11.73V18.0034C10.9648 18.1466 10.9219 18.2612 10.8359 18.3472C10.75 18.4331 10.6354 18.4761 10.4922 18.4761H7.22656C7.11198 18.4761 6.9974 18.4331 6.88281 18.3472C6.79688 18.2612 6.75391 18.1466 6.75391 18.0034V6.40186C6.75391 6.28727 6.79688 6.18701 6.88281 6.10107C6.9974 5.98649 7.11198 5.9292 7.22656 5.9292H10.4062C10.5208 5.9292 10.6068 5.95785 10.6641 6.01514C10.75 6.07243 10.8073 6.15837 10.8359 6.27295C10.8359 6.38753 10.8359 6.45915 10.8359 6.48779C10.8646 6.54508 10.8789 6.64535 10.8789 6.78857C11.681 6.01514 12.7695 5.62842 14.1445 5.62842C15.6628 5.62842 16.8516 6.01514 17.7109 6.78857C18.5703 7.56201 19 8.69352 19 10.1831V18.0034C19 18.1466 18.9427 18.2612 18.8281 18.3472C18.7422 18.4331 18.6419 18.4761 18.5273 18.4761H15.1758C15.0612 18.4761 14.9466 18.4331 14.832 18.3472C14.7461 18.2612 14.7031 18.1466 14.7031 18.0034V10.9565ZM5.07812 2.40576C5.07812 3.00732 4.86328 3.53727 4.43359 3.99561C4.00391 4.42529 3.47396 4.64014 2.84375 4.64014C2.24219 4.64014 1.72656 4.42529 1.29688 3.99561C0.867188 3.53727 0.652344 3.00732 0.652344 2.40576C0.652344 1.77555 0.867188 1.24561 1.29688 0.815918C1.72656 0.38623 2.24219 0.171387 2.84375 0.171387C3.47396 0.171387 4.00391 0.38623 4.43359 0.815918C4.86328 1.24561 5.07812 1.77555 5.07812 2.40576ZM4.99219 6.40186V18.0034C4.99219 18.1466 4.9349 18.2612 4.82031 18.3472C4.73438 18.4331 4.63411 18.4761 4.51953 18.4761H1.25391C1.11068 18.4761 0.996094 18.4331 0.910156 18.3472C0.824219 18.2612 0.78125 18.1466 0.78125 18.0034V6.40186C0.78125 6.28727 0.824219 6.18701 0.910156 6.10107C0.996094 5.98649 1.11068 5.9292 1.25391 5.9292H4.51953C4.63411 5.9292 4.73438 5.98649 4.82031 6.10107C4.9349 6.18701 4.99219 6.28727 4.99219 6.40186Z" fill="white"/>
</svg>
